<svg width="20" height="20" viewBox="0 -3 20 32" fill="none" xmlns="http://www.w3.org/2000/svg">
    <path d="M18.6654 8.55566H9.73783H9.33203V14.7103L12.9842 18.6668H15.419L18.6654 15.1499V8.55566Z" fill="#191919"/>
    <path d="M13.9987 18.0833C16.577 18.0833 18.6654 15.9949 18.6654 13.4166V6.99992C18.6654 4.42159 16.577 2.33325 13.9987 2.33325C11.4204 2.33325 9.33203 4.42159 9.33203 6.99992V13.4166C9.33203 15.9949 11.4204 18.0833 13.9987 18.0833Z" stroke="#191919" stroke-width="2.25" stroke-linecap="round" stroke-linejoin="round"/>
    <path d="M5.07422 11.2583V13.2416C5.07422 18.165 9.07589 22.1666 13.9992 22.1666C18.9226 22.1666 22.9242 18.165 22.9242 13.2416V11.2583" stroke="#191919" stroke-width="2.25" stroke-linecap="round" stroke-linejoin="round"/>
    <path d="M14 22.1667V25.6667" stroke="#191919" stroke-width="2.25" stroke-linecap="round" stroke-linejoin="round"/>
</svg>