<svg width="20" height="18" viewBox="0 0 20 18" fill="none" xmlns="http://www.w3.org/2000/svg">
<path fill-rule="evenodd" clip-rule="evenodd" d="M1.98951 2.38995L2.97595 8.06194H9.06242C9.58018 8.06194 9.99992 8.48167 9.99992 8.99944C9.99992 9.5172 9.58018 9.93694 9.06242 9.93694H2.97595L1.98951 15.6089L17.4117 8.99944L1.98951 2.38995ZM1.23584 8.99944L0.0795019 2.35048C-0.0139788 1.81297 0.159948 1.26358 0.545735 0.877792C1.03047 0.393067 1.76148 0.252279 2.39157 0.522317L19.1445 7.70214C19.6634 7.92455 19.9999 8.43483 19.9999 8.99944C19.9999 9.56404 19.6634 10.0743 19.1445 10.2967L2.39157 17.4765C1.76148 17.7466 1.03047 17.6058 0.545735 17.1211C0.159948 16.7353 -0.0139791 16.1859 0.0795019 15.6484L1.23584 8.99944Z" fill="#FFF963"/>
</svg>
